<svg width="637" height="304" viewBox="0 0 637 304" fill="none" xmlns="http://www.w3.org/2000/svg">
<path d="M98.8457 0H0V67.1767H98.8457V0Z" fill="#F1F1F1"/>
<path d="M233.199 0H134.353V67.1767H233.199V0Z" fill="#F1F1F1"/>
<path d="M367.552 0H268.707V67.1767H367.552V0Z" fill="#F1F1F1"/>
<path d="M501.906 0H403.06V67.1767H501.906V0Z" fill="#F1F1F1"/>
<path d="M636.259 0H537.413V67.1767H636.259V0Z" fill="#F1F1F1"/>
<path d="M99.2081 118.039H0.362457V185.216H99.2081V118.039Z" fill="#F1F1F1"/>
<path d="M233.561 118.039H134.716V185.216H233.561V118.039Z" fill="#F1F1F1"/>
<path d="M367.915 118.039H269.069V185.216H367.915V118.039Z" fill="#F1F1F1"/>
<path d="M502.268 118.039H403.422V185.216H502.268V118.039Z" fill="#F1F1F1"/>
<path d="M636.621 118.039H537.776V185.216H636.621V118.039Z" fill="#F1F1F1"/>
<path d="M99.5706 236.078H0.724915V303.255H99.5706V236.078Z" fill="#F1F1F1"/>
<path d="M233.924 236.078H135.078V303.255H233.924V236.078Z" fill="#F1F1F1"/>
<path d="M368.277 236.078H269.432V303.255H368.277V236.078Z" fill="#F1F1F1"/>
<path d="M502.63 236.078H403.785V303.255H502.63V236.078Z" fill="#F1F1F1"/>
<path d="M636.984 236.078H538.138V303.255H636.984V236.078Z" fill="#F1F1F1"/>
<path d="M289.222 33.5883C296.112 33.5883 301.698 28.0028 301.698 21.1127C301.698 14.2226 296.112 8.63702 289.222 8.63702C282.332 8.63702 276.746 14.2226 276.746 21.1127C276.746 28.0028 282.332 33.5883 289.222 33.5883Z" fill="#266DE0"/>
<path d="M152.949 151.627C159.84 151.627 165.425 146.042 165.425 139.152C165.425 132.262 159.84 126.676 152.949 126.676C146.059 126.676 140.474 132.262 140.474 139.152C140.474 146.042 146.059 151.627 152.949 151.627Z" fill="#266DE0"/>
<path d="M289.222 269.666C296.112 269.666 301.698 264.081 301.698 257.191C301.698 250.301 296.112 244.715 289.222 244.715C282.332 244.715 276.746 250.301 276.746 257.191C276.746 264.081 282.332 269.666 289.222 269.666Z" fill="#266DE0"/>
<path d="M426.454 151.627C433.345 151.627 438.93 146.042 438.93 139.152C438.93 132.262 433.345 126.676 426.454 126.676C419.564 126.676 413.979 132.262 413.979 139.152C413.979 146.042 419.564 151.627 426.454 151.627Z" fill="#FA8F7C"/>
<path d="M559.848 151.627C566.738 151.627 572.324 146.042 572.324 139.152C572.324 132.262 566.738 126.676 559.848 126.676C552.958 126.676 547.372 132.262 547.372 139.152C547.372 146.042 552.958 151.627 559.848 151.627Z" fill="#FA8F7C"/>
<path d="M152.949 269.666C159.84 269.666 165.425 264.081 165.425 257.191C165.425 250.301 159.84 244.715 152.949 244.715C146.059 244.715 140.474 250.301 140.474 257.191C140.474 264.081 146.059 269.666 152.949 269.666Z" fill="#FA8F7C"/>
</svg>
