<svg width="435" height="472" viewBox="0 0 435 472" fill="none" xmlns="http://www.w3.org/2000/svg">
<path d="M84.2312 15.4883C84.1991 17.295 83.8113 19.0776 83.09 20.7344C82.3688 22.3912 81.3281 23.8896 80.0276 25.1442C78.7272 26.3987 77.1923 27.3847 75.5106 28.0459C73.829 28.7071 72.0335 29.0305 70.2268 28.9977H5.25751C5.02212 28.9917 4.7867 28.9856 4.55127 28.9675C3.94251 28.9282 3.33733 28.8455 2.74036 28.72V5.72148C2.73997 4.80127 3.02075 3.90289 3.54504 3.14665C4.06934 2.39041 4.81213 1.8124 5.67401 1.48999H70.7218C74.3682 1.55893 77.8384 3.07146 80.371 5.69574C82.9036 8.32002 84.2919 11.8417 84.2312 15.4883Z" fill="#E6E6E6"/>
<path d="M427.24 3.15941e-05H8.24036C7.33751 -0.00263532 6.44216 0.16356 5.6004 0.490037C4.17258 1.02415 2.94199 1.9817 2.07343 3.23451C1.20486 4.48732 0.739727 5.97558 0.740357 7.50003V464.5C0.741078 466.489 1.5315 468.396 2.93787 469.803C4.34423 471.209 6.25145 471.999 8.24036 472H427.24C429.229 471.999 431.137 471.209 432.543 469.803C433.949 468.396 434.74 466.489 434.74 464.5V7.50003C434.74 5.51113 433.949 3.60389 432.543 2.19753C431.137 0.79116 429.229 0.000752511 427.24 3.15941e-05ZM431.74 464.5C431.739 465.693 431.264 466.836 430.42 467.68C429.577 468.524 428.433 468.998 427.24 469H8.24036C7.04744 468.998 5.90389 468.524 5.06036 467.68C4.21684 466.836 3.74216 465.693 3.74036 464.5V7.50003C3.74215 6.30711 4.21684 5.16356 5.06036 4.32004C5.90389 3.47651 7.04743 3.00182 8.24036 3.00003H427.24C428.433 3.00182 429.577 3.47651 430.42 4.32004C431.264 5.16356 431.739 6.30711 431.74 7.50003V464.5Z" fill="#E6E6E6"/>
<path d="M204.858 157.021C210.294 157.021 214.701 152.615 214.701 147.178C214.701 141.742 210.294 137.335 204.858 137.335C199.422 137.335 195.015 141.742 195.015 147.178C195.015 152.615 199.422 157.021 204.858 157.021Z" fill="#266DE0"/>
<path d="M245.871 157.021C251.307 157.021 255.714 152.615 255.714 147.178C255.714 141.742 251.307 137.335 245.871 137.335C240.435 137.335 236.028 141.742 236.028 147.178C236.028 152.615 240.435 157.021 245.871 157.021Z" fill="#266DE0"/>
<path d="M122.833 238.361C128.269 238.361 132.676 233.954 132.676 228.518C132.676 223.081 128.269 218.675 122.833 218.675C117.397 218.675 112.99 223.081 112.99 228.518C112.99 233.954 117.397 238.361 122.833 238.361Z" fill="#266DE0"/>
<path d="M163.846 238.361C169.282 238.361 173.689 233.954 173.689 228.518C173.689 223.081 169.282 218.675 163.846 218.675C158.41 218.675 154.003 223.081 154.003 228.518C154.003 233.954 158.41 238.361 163.846 238.361Z" fill="#266DE0"/>
<path d="M204.858 279.03C210.294 279.03 214.701 274.623 214.701 269.187C214.701 263.751 210.294 259.344 204.858 259.344C199.422 259.344 195.015 263.751 195.015 269.187C195.015 274.623 199.422 279.03 204.858 279.03Z" fill="#266DE0"/>
<path d="M245.871 279.03C251.307 279.03 255.714 274.623 255.714 269.187C255.714 263.751 251.307 259.344 245.871 259.344C240.435 259.344 236.028 263.751 236.028 269.187C236.028 274.623 240.435 279.03 245.871 279.03Z" fill="#266DE0"/>
<path d="M286.883 279.03C292.32 279.03 296.726 274.623 296.726 269.187C296.726 263.751 292.32 259.344 286.883 259.344C281.447 259.344 277.04 263.751 277.04 269.187C277.04 274.623 281.447 279.03 286.883 279.03Z" fill="#266DE0"/>
<path d="M40.2416 7.27235C40.0222 7.49176 39.8989 7.78934 39.8989 8.09964C39.8989 8.40994 40.0221 8.70755 40.2415 8.92699L45.2645 13.95H32.8787C32.5689 13.9509 32.2722 14.0745 32.0535 14.2939C31.8348 14.5132 31.712 14.8103 31.712 15.12C31.712 15.4297 31.8348 15.7268 32.0535 15.9462C32.2722 16.1655 32.5689 16.2892 32.8787 16.2901H45.2645L40.2416 21.3129C40.0222 21.5324 39.8989 21.83 39.8989 22.1403C39.8989 22.4506 40.0222 22.7482 40.2416 22.9676C40.4611 23.1871 40.7587 23.3103 41.069 23.3103C41.3793 23.3104 41.6769 23.1871 41.8963 22.9677L48.9166 15.9474C49.136 15.7279 49.2593 15.4303 49.2593 15.12C49.2593 14.8097 49.136 14.5121 48.9166 14.2926L41.8963 7.27235C41.6769 7.05295 41.3793 6.92969 41.069 6.92969C40.7587 6.92969 40.4611 7.05295 40.2416 7.27235Z" fill="white"/>
<path d="M336.887 168.178H72.5922C71.5696 168.178 70.7405 167.73 70.7405 167.178C70.7405 166.626 71.5696 166.178 72.5922 166.178H336.887C337.91 166.178 338.739 166.626 338.739 167.178C338.739 167.73 337.91 168.178 336.887 168.178Z" fill="#E6E6E6"/>
<path d="M336.887 124H72.5922C71.5696 124 70.7405 123.552 70.7405 123C70.7405 122.448 71.5696 122 72.5922 122H336.887C337.91 122 338.739 122.448 338.739 123C338.739 123.552 337.91 124 336.887 124Z" fill="#E6E6E6"/>
<path d="M337.739 209.441H71.9777C71.7124 209.441 71.4581 209.336 71.2706 209.148C71.083 208.961 70.9777 208.706 70.9777 208.441C70.9777 208.176 71.083 207.921 71.2706 207.734C71.4581 207.546 71.7124 207.441 71.9777 207.441H337.739C338.004 207.441 338.259 207.546 338.446 207.734C338.634 207.921 338.739 208.176 338.739 208.441C338.739 208.706 338.634 208.961 338.446 209.148C338.259 209.336 338.004 209.441 337.739 209.441Z" fill="#E6E6E6"/>
<path d="M337.739 249.441H71.9777C71.7124 249.441 71.4581 249.336 71.2706 249.148C71.083 248.961 70.9777 248.706 70.9777 248.441C70.9777 248.176 71.083 247.921 71.2706 247.734C71.4581 247.546 71.7124 247.441 71.9777 247.441H337.739C338.004 247.441 338.259 247.546 338.446 247.734C338.634 247.921 338.739 248.176 338.739 248.441C338.739 248.706 338.634 248.961 338.446 249.148C338.259 249.336 338.004 249.441 337.739 249.441Z" fill="#E6E6E6"/>
<path d="M337.739 290.441H71.9777C71.7124 290.441 71.4581 290.336 71.2706 290.148C71.083 289.961 70.9777 289.706 70.9777 289.441C70.9777 289.176 71.083 288.921 71.2706 288.734C71.4581 288.546 71.7124 288.441 71.9777 288.441H337.739C338.004 288.441 338.259 288.546 338.446 288.734C338.634 288.921 338.739 289.176 338.739 289.441C338.739 289.706 338.634 289.961 338.446 290.148C338.259 290.336 338.004 290.441 337.739 290.441Z" fill="#E6E6E6"/>
<path d="M306.74 288.38V123.62C306.74 123.278 307.188 123 307.74 123C308.293 123 308.74 123.277 308.74 123.62V288.38C308.74 288.722 308.293 289 307.74 289C307.188 289 306.74 288.722 306.74 288.38Z" fill="#E6E6E6"/>
<path d="M265.74 288.38V123.62C265.74 123.278 266.188 123 266.74 123C267.293 123 267.74 123.277 267.74 123.62V288.38C267.74 288.722 267.293 289 266.74 289C266.188 289 265.74 288.722 265.74 288.38Z" fill="#E6E6E6"/>
<path d="M224.74 288.38V123.62C224.74 123.278 225.188 123 225.74 123C226.293 123 226.74 123.277 226.74 123.62V288.38C226.74 288.722 226.293 289 225.74 289C225.188 289 224.74 288.722 224.74 288.38Z" fill="#E6E6E6"/>
<path d="M184.74 288.38V123.62C184.74 123.278 185.188 123 185.74 123C186.293 123 186.74 123.277 186.74 123.62V288.38C186.74 288.722 186.293 289 185.74 289C185.188 289 184.74 288.722 184.74 288.38Z" fill="#E6E6E6"/>
<path d="M142.74 330.223V123.777C142.797 123.555 142.926 123.358 143.107 123.217C143.288 123.076 143.511 123 143.74 123C143.97 123 144.193 123.076 144.374 123.217C144.555 123.358 144.684 123.555 144.74 123.777V330.223C144.684 330.445 144.555 330.642 144.374 330.783C144.193 330.924 143.97 331 143.74 331C143.511 331 143.288 330.924 143.107 330.783C142.926 330.642 142.797 330.445 142.74 330.223Z" fill="#E6E6E6"/>
<path d="M100.74 330.223V123.777C100.797 123.555 100.926 123.358 101.107 123.217C101.288 123.076 101.511 123 101.74 123C101.97 123 102.193 123.076 102.374 123.217C102.555 123.358 102.684 123.555 102.74 123.777V330.223C102.684 330.445 102.555 330.642 102.374 330.783C102.193 330.924 101.97 331 101.74 331C101.511 331 101.288 330.924 101.107 330.783C100.926 330.642 100.797 330.445 100.74 330.223Z" fill="#E6E6E6"/>
<path d="M71.9777 331.441C71.7124 331.442 71.4579 331.337 71.27 331.15C71.082 330.963 70.976 330.709 70.9755 330.444C70.9749 330.178 71.0797 329.924 71.2668 329.736C71.454 329.548 71.7081 329.442 71.9733 329.441L173.736 329C173.999 329.005 174.25 329.112 174.437 329.297C174.624 329.483 174.733 329.733 174.74 329.996C174.741 330.127 174.716 330.258 174.666 330.379C174.616 330.501 174.543 330.611 174.451 330.704C174.358 330.798 174.248 330.872 174.127 330.922C174.006 330.973 173.876 330.999 173.745 331L71.9821 331.441H71.9777Z" fill="#E6E6E6"/>
<path d="M146.378 80.1782C146.112 80.1784 145.858 80.0732 145.67 79.8858C145.483 79.6984 145.377 79.4442 145.377 79.179C145.377 78.9137 145.482 78.6593 145.669 78.4716C145.857 78.284 146.111 78.1784 146.376 78.1782L289.102 78H289.103C289.368 77.9998 289.623 78.105 289.81 78.2924C289.998 78.4798 290.104 78.7341 290.104 78.9993C290.104 79.2645 289.999 79.5189 289.812 79.7066C289.624 79.8943 289.37 79.9998 289.105 80L146.379 80.1782H146.378Z" fill="#E6E6E6"/>
<path d="M194.705 406.203C190.742 406.203 186.869 405.028 183.574 402.826C180.279 400.625 177.711 397.496 176.195 393.835C174.678 390.174 174.281 386.145 175.055 382.259C175.828 378.372 177.736 374.802 180.538 372C183.34 369.198 186.91 367.29 190.796 366.517C194.683 365.744 198.711 366.141 202.372 367.657C206.033 369.174 209.162 371.742 211.364 375.037C213.565 378.331 214.74 382.205 214.74 386.168C214.74 388.799 214.222 391.404 213.215 393.835C212.208 396.266 210.733 398.474 208.872 400.335C207.012 402.195 204.803 403.671 202.372 404.678C199.941 405.685 197.336 406.203 194.705 406.203Z" fill="#E6E6E6"/>
<path d="M202.61 384.191H196.681V378.262C196.681 377.738 196.473 377.235 196.103 376.865C195.732 376.494 195.229 376.286 194.705 376.286C194.181 376.286 193.678 376.494 193.307 376.865C192.937 377.235 192.729 377.738 192.729 378.262V384.191H186.799C186.275 384.191 185.773 384.4 185.402 384.77C185.031 385.141 184.823 385.644 184.823 386.168C184.823 386.692 185.031 387.194 185.402 387.565C185.773 387.936 186.275 388.144 186.799 388.144H192.729V394.073C192.728 394.333 192.779 394.591 192.878 394.831C192.977 395.071 193.122 395.29 193.306 395.474C193.489 395.658 193.708 395.804 193.948 395.903C194.188 396.003 194.445 396.054 194.705 396.054C194.965 396.054 195.222 396.003 195.462 395.903C195.702 395.804 195.921 395.658 196.104 395.474C196.288 395.29 196.433 395.071 196.532 394.831C196.631 394.591 196.682 394.333 196.681 394.073V388.144H202.61C203.135 388.144 203.637 387.936 204.008 387.565C204.379 387.194 204.587 386.692 204.587 386.168C204.587 385.644 204.379 385.141 204.008 384.77C203.637 384.4 203.135 384.191 202.61 384.191Z" fill="white"/>
<path d="M240.705 406.203C236.742 406.203 232.869 405.028 229.574 402.826C226.279 400.625 223.711 397.496 222.195 393.835C220.678 390.174 220.281 386.145 221.055 382.259C221.828 378.372 223.736 374.802 226.538 372C229.34 369.198 232.91 367.29 236.796 366.517C240.683 365.744 244.711 366.141 248.372 367.657C252.033 369.174 255.162 371.742 257.364 375.037C259.565 378.331 260.74 382.205 260.74 386.168C260.74 388.799 260.222 391.404 259.215 393.835C258.208 396.266 256.733 398.474 254.872 400.335C253.012 402.195 250.803 403.671 248.372 404.678C245.941 405.685 243.336 406.203 240.705 406.203Z" fill="#E6E6E6"/>
<path d="M250.846 394.694L245.627 388.584C246.848 386.855 247.379 384.731 247.114 382.63C246.849 380.53 245.807 378.604 244.194 377.233C242.58 375.862 240.512 375.145 238.396 375.222C236.28 375.299 234.27 376.165 232.761 377.65C231.252 379.135 230.353 381.131 230.241 383.245C230.129 385.359 230.813 387.439 232.157 389.074C233.502 390.71 235.41 391.783 237.506 392.082C239.602 392.382 241.734 391.886 243.483 390.693L248.564 396.642C248.823 396.942 249.191 397.128 249.586 397.158C249.982 397.188 250.373 397.06 250.674 396.803C250.976 396.545 251.163 396.179 251.195 395.783C251.227 395.388 251.102 394.996 250.846 394.694ZM233.205 383.668C233.205 382.58 233.528 381.517 234.132 380.612C234.736 379.708 235.595 379.003 236.6 378.586C237.605 378.17 238.711 378.061 239.778 378.273C240.845 378.486 241.825 379.009 242.594 379.779C243.363 380.548 243.887 381.528 244.099 382.595C244.312 383.662 244.203 384.767 243.786 385.772C243.37 386.777 242.665 387.636 241.761 388.241C240.856 388.845 239.793 389.168 238.705 389.168C237.247 389.166 235.849 388.586 234.818 387.555C233.787 386.524 233.207 385.126 233.205 383.668Z" fill="white"/>
<path d="M146.378 408.179C146.112 408.179 145.858 408.074 145.67 407.886C145.483 407.699 145.377 407.445 145.377 407.179C145.377 406.914 145.482 406.66 145.669 406.472C145.857 406.284 146.111 406.179 146.376 406.179L289.102 406H289.103C289.368 406 289.623 406.105 289.81 406.292C289.998 406.48 290.104 406.734 290.104 406.999C290.104 407.264 289.999 407.519 289.812 407.707C289.624 407.894 289.37 408 289.105 408L146.379 408.179H146.378Z" fill="#E6E6E6"/>
<path d="M74.8583 227.021C80.2944 227.021 84.7013 222.615 84.7013 217.178C84.7013 211.742 80.2944 207.335 74.8583 207.335C69.4221 207.335 65.0153 211.742 65.0153 217.178C65.0153 222.615 69.4221 227.021 74.8583 227.021Z" fill="#266DE0"/>
<path d="M244.24 66.8206H191.24C190.047 66.8206 188.902 66.3464 188.058 65.5025C187.214 64.6586 186.74 63.514 186.74 62.3206C186.74 61.1271 187.214 59.9825 188.058 59.1386C188.902 58.2947 190.047 57.8206 191.24 57.8206H244.24C245.434 57.8206 246.578 58.2947 247.422 59.1386C248.266 59.9825 248.74 61.1271 248.74 62.3206C248.74 63.514 248.266 64.6586 247.422 65.5025C246.578 66.3464 245.434 66.8206 244.24 66.8206Z" fill="#E6E6E6"/>
<path d="M411.174 28.6071C408.995 28.6071 406.865 27.9609 405.053 26.7502C403.241 25.5396 401.829 23.8189 400.995 21.8056C400.161 19.7924 399.943 17.5771 400.368 15.4399C400.793 13.3027 401.843 11.3395 403.384 9.79867C404.924 8.25781 406.888 7.20848 409.025 6.78336C411.162 6.35824 413.377 6.57643 415.39 7.41033C417.404 8.24423 419.124 9.6564 420.335 11.4683C421.546 13.2801 422.192 15.4103 422.192 17.5894C422.192 20.5114 421.031 23.3138 418.965 25.38C416.899 27.4463 414.096 28.6071 411.174 28.6071Z" fill="#E6E6E6"/>
</svg>
