<svg width="358" height="576" viewBox="0 0 358 576" fill="none" xmlns="http://www.w3.org/2000/svg">
<path d="M248.214 108.671C250.066 116.028 256.104 130.822 256.157 138.452L255.74 137.913C254.607 139.358 253.36 140.709 252.01 141.953C250.228 139.488 247.953 137.421 245.329 135.884C246.424 139.207 246.843 142.716 246.561 146.204C242.308 155.147 229.086 149.11 221.147 146.991C211.825 155.122 200.765 156.071 187.432 148.855C183.446 148.726 179.013 148.373 176.574 145.676C174.135 142.979 186.82 129.188 185.78 125.733C178.375 101.125 178.793 103.801 188.499 94.4187C190.634 92.354 191.096 88.9022 193.612 86.9973C197.103 84.3572 201.945 84.0574 206.393 83.8947C205.256 83.8007 204.162 83.4156 203.217 82.7765C202.272 82.1373 201.508 81.2656 200.997 80.2453C200.566 79.2287 200.423 78.1126 200.586 77.0202C200.749 75.9279 201.21 74.9016 201.919 74.0548C203.823 71.6892 207.257 70.6298 210.424 70.6791C213.522 70.8879 216.57 71.5722 219.46 72.7079C221.362 73.2258 223.155 74.0801 224.756 75.2302C225.511 75.7751 226.081 76.5375 226.391 77.4154C226.701 78.2933 226.736 79.2449 226.49 80.143C226.116 80.9523 225.564 81.6666 224.875 82.2326C224.186 82.7986 223.378 83.2018 222.511 83.412C221.185 83.7719 219.816 83.9537 218.441 83.9528C224.75 83.991 230.898 85.9494 236.067 89.5674C242.527 94.2296 246.351 101.316 248.214 108.671Z" fill="#2F2E41"/>
<path d="M184.134 123.629C180.892 110.135 189.203 96.5687 202.696 93.327C216.19 90.0853 229.756 98.3959 232.998 111.889C236.24 125.383 227.929 138.949 214.436 142.191C200.942 145.433 187.376 137.122 184.134 123.629Z" fill="#FFB6B6"/>
<path d="M225.339 107.666C223.302 111.833 218.986 112.678 215.053 113.036C213.813 113.153 212.568 113.25 211.315 113.316C210.942 112.692 210.538 112.075 210.108 111.485C208.327 109.02 206.051 106.953 203.427 105.416C204.295 108.041 204.736 110.789 204.732 113.555C202.382 113.576 200.027 113.534 197.667 113.429C195.638 113.581 193.628 112.947 192.053 111.659C190.478 110.371 189.458 108.528 189.204 106.509C186.611 109.69 183.658 112.617 180.039 113.529C175.815 114.428 182.498 112.47 180.393 108.7C178.679 105.914 177.992 102.391 177.611 99.0286C177.162 95.0326 177.227 90.5083 179.472 88.3169C181.273 86.5411 188.367 92.2256 190.78 92.7329C196.104 93.877 185.849 90.2047 190.827 92.4114L191.131 93.4574C190.968 87.9859 193.6 83.1006 197.423 81.7558C200 80.8594 202.873 81.459 205.658 82.0905C209.256 82.7441 212.739 83.9221 215.995 85.5868C219.712 87.6289 222.708 90.7698 224.572 94.5796C226.558 98.718 227.097 104.067 225.339 107.666Z" fill="#2F2E41"/>
<path d="M202.008 79.5697C202.264 79.5305 201.614 79.5372 201.834 79.5731C201.725 79.5518 201.619 79.5218 201.515 79.4832C201.497 79.4771 201.26 79.3643 201.417 79.4448C201.062 79.2839 200.761 79.0238 200.551 78.6958C200.064 77.8931 199.717 77.0141 199.522 76.0958C199.284 74.8848 198.792 73.7379 198.079 72.7303C197.875 72.4602 197.609 72.2422 197.305 72.0938C197 71.9455 196.665 71.8711 196.326 71.8766C195.987 71.8822 195.655 71.9675 195.355 72.1257C195.056 72.2839 194.797 72.5106 194.602 72.7872C193.971 73.794 194.234 75.1757 194.437 76.2763C194.645 77.4194 195.036 78.5215 195.596 79.54C196.537 81.2093 197.945 82.5686 199.646 83.4522C201.613 84.4852 203.861 84.8565 206.056 84.511C206.351 84.4332 206.616 84.2716 206.82 84.0457C207.024 83.8198 207.158 83.5394 207.206 83.2387C207.253 82.938 207.212 82.6299 207.088 82.352C206.964 82.0742 206.761 81.8385 206.505 81.6737L203.183 79.7556C203.009 79.649 202.816 79.5777 202.614 79.5457C202.412 79.5138 202.207 79.522 202.008 79.5697C201.809 79.6174 201.622 79.7037 201.457 79.8237C201.292 79.9437 201.152 80.0951 201.045 80.2692C200.939 80.4433 200.867 80.6367 200.836 80.8383C200.804 81.04 200.812 81.2459 200.859 81.4444C200.907 81.643 200.993 81.8301 201.114 81.9953C201.234 82.1604 201.385 82.3003 201.559 82.407L204.881 84.325L205.33 81.4877C204.874 81.5547 204.412 81.5706 203.952 81.5349C203.459 81.5175 202.971 81.43 202.502 81.2751C202.05 81.1521 201.612 80.9803 201.197 80.7626C200.931 80.6224 200.673 80.4689 200.423 80.3025C200.332 80.2421 200.242 80.18 200.154 80.1161C200.16 80.1207 199.783 79.8267 199.947 79.9631C199.532 79.6105 199.15 79.22 198.807 78.7966C198.686 78.6465 198.578 78.4868 198.483 78.319C198.316 78.0456 198.165 77.7626 198.031 77.4716C197.762 76.8573 197.57 76.2117 197.46 75.5499C197.407 75.2709 197.369 74.9892 197.345 74.7061C197.348 74.553 197.341 74.3998 197.324 74.2476C197.241 73.8793 197.321 74.4556 197.15 74.5871L196.437 74.9768C196.31 74.9965 196.18 74.9874 196.058 74.9503C195.935 74.9132 195.822 74.8489 195.728 74.7622C195.666 74.6437 195.68 74.6639 195.771 74.8228C195.876 75.0097 195.97 75.2031 196.051 75.4018C196.224 75.8673 196.374 76.3414 196.499 76.8221C196.754 77.8428 197.118 78.8334 197.584 79.777C198.037 80.7288 198.778 81.5135 199.703 82.0191C200.628 82.5248 201.689 82.7256 202.734 82.5929C203.133 82.4936 203.478 82.2414 203.692 81.8907C203.907 81.5399 203.976 81.1188 203.883 80.7181C203.779 80.3216 203.526 79.9806 203.177 79.7665C202.827 79.5524 202.408 79.4819 202.008 79.5697Z" fill="#2F2E41"/>
<path d="M211.197 553.762L199.667 553.761L194.182 509.29H211.199L211.197 553.762Z" fill="#FFB6B6"/>
<path d="M195.831 554.8V546.983L198.862 547.169L211.2 547.9L214.056 548.075L216.239 574.253L216.356 575.656H208.169L207.906 574.262L206.717 567.927L203.647 574.262L202.975 575.656H181.27C179.979 575.648 178.743 575.13 177.83 574.216C176.918 573.302 176.403 572.065 176.397 570.773C175.481 566.495 193.531 557.246 195.831 554.8Z" fill="#2F2E41"/>
<path d="M339.556 539.867L330.063 546.41L300.308 512.907L314.319 503.251L339.556 539.867Z" fill="#FFB6B6"/>
<path d="M327.494 549.443L323.058 543.007L325.658 541.439L336.232 535.039L338.683 533.563L355.337 553.877L356.23 554.966L349.489 559.612L348.482 558.614L343.907 554.073L344.975 561.031L345.212 562.561L327.342 574.878C326.274 575.605 324.962 575.88 323.692 575.645C322.422 575.41 321.296 574.684 320.559 573.624C317.376 570.621 326.988 552.762 327.494 549.443Z" fill="#2F2E41"/>
<path d="M52.4171 101.633C53.308 103.572 54.9201 105.086 56.9103 105.853C58.9006 106.621 61.1119 106.582 63.0737 105.744C63.4698 105.568 63.8505 105.359 64.2121 105.119L113.707 142.617L129.259 129.45L65.9933 93.6264C64.8846 92.2038 63.3362 91.1883 61.5897 90.7384C59.8431 90.2884 57.9968 90.4292 56.3387 91.1389C54.4411 91.9728 52.9525 93.5264 52.2004 95.4578C51.4482 97.3892 51.4941 99.5404 52.328 101.438C52.3568 101.504 52.3865 101.569 52.4171 101.633Z" fill="#FFB6B6"/>
<path d="M197.766 206.948C197.766 206.948 215.258 202.484 203.004 179.514C190.751 156.544 143.623 130.929 140.361 130.61C137.099 130.291 139.746 133.4 134.095 128.276C129.499 124.11 127.618 128.078 127.447 126.052C126.997 120.71 120.03 129.809 120.955 123.246C121.88 116.683 106.139 137.793 106.139 137.793C106.139 137.793 106.144 141.706 114.412 144.881C119.055 146.664 122.295 145.153 122.186 149.148C122.076 153.143 131.601 151.648 132.835 152.522C134.069 153.396 154.898 181.15 154.898 181.15L197.766 206.948Z" fill="#266DE0"/>
<path d="M32.3246 180.715C53.7065 175.393 72.0642 164.931 86.4156 147.66C87.5096 146.99 88.2931 145.913 88.5942 144.666C88.8952 143.419 88.6893 142.103 88.0215 141.008L63.0578 100.157C62.3875 99.0629 61.3107 98.2794 60.0635 97.9783C58.8162 97.6773 57.5005 97.8832 56.4049 98.551L2.31394 131.606C1.21989 132.276 0.436371 133.353 0.135292 134.6C-0.165787 135.847 0.0401462 137.163 0.707924 138.259L25.6717 179.109C26.342 180.203 27.4188 180.987 28.6661 181.288C29.9133 181.589 31.229 181.383 32.3246 180.715Z" fill="#E6E6E6"/>
<path d="M46.7475 167.598C58.0056 166.369 69.7061 157.371 81.5221 146.347C82.5467 145.719 83.2805 144.711 83.5625 143.543C83.8444 142.375 83.6515 141.143 83.0261 140.117L61.5718 105.009C60.9441 103.984 59.9356 103.25 58.7675 102.968C57.5994 102.686 56.3672 102.879 55.3411 103.505L7.20748 132.919C6.18286 133.547 5.44913 134.555 5.1672 135.723C4.88526 136.891 5.07819 138.124 5.70364 139.15L18.994 160.898C21.7901 165.462 26.2825 168.731 31.4854 169.987C36.6884 171.243 42.1771 170.384 46.7475 167.598Z" fill="white"/>
<path d="M26.3986 132.252C25.91 130.324 27.7606 128.192 30.532 127.49C33.3033 126.788 35.946 127.781 36.4346 129.709C36.9232 131.637 35.0726 133.769 32.3012 134.471C29.5299 135.174 26.8872 134.18 26.3986 132.252Z" fill="white"/>
<path d="M60.2422 132.034C59.7537 130.106 61.6042 127.974 64.3756 127.272C67.1469 126.569 69.7896 127.563 70.2782 129.491C70.7668 131.419 68.9162 133.551 66.1449 134.253C63.3735 134.956 60.7308 133.962 60.2422 132.034Z" fill="#266DE0"/>
<path d="M20.0477 160.331C19.5591 158.403 21.4096 156.271 24.181 155.568C26.9524 154.866 29.595 155.859 30.0836 157.787C30.5722 159.715 28.7216 161.848 25.9503 162.55C23.1789 163.252 20.5362 162.259 20.0477 160.331Z" fill="#FF6584"/>
<path d="M12.1584 170.918C11.9577 169.123 12.8077 167.554 14.0569 167.414C15.3061 167.275 16.4814 168.617 16.682 170.413C16.8827 172.209 16.0327 173.777 14.7835 173.917C13.5343 174.057 12.359 172.714 12.1584 170.918Z" fill="#E6E6E6"/>
<path d="M9.37542 192.126C9.17478 190.331 10.0248 188.762 11.274 188.622C12.5231 188.483 13.6984 189.825 13.8991 191.621C14.0997 193.416 13.2497 194.985 12.0006 195.125C10.7514 195.265 9.57607 193.922 9.37542 192.126Z" fill="#266DE0"/>
<path d="M43.9757 151.71C43.7751 149.915 44.6251 148.346 45.8742 148.206C47.1234 148.067 48.2987 149.409 48.4994 151.205C48.7 153.001 47.85 154.569 46.6008 154.709C45.3517 154.849 44.1764 153.506 43.9757 151.71Z" fill="#E6E6E6"/>
<path d="M26.944 145.312C26.7434 143.516 27.5934 141.947 28.8425 141.808C30.0917 141.668 31.267 143.011 31.4677 144.806C31.6683 146.602 30.8183 148.171 29.5691 148.311C28.32 148.45 27.1446 147.108 26.944 145.312Z" fill="#FF6584"/>
<path d="M47.9263 128.025C47.7257 126.23 48.5757 124.661 49.8249 124.521C51.074 124.382 52.2494 125.724 52.45 127.52C52.6506 129.316 51.8006 130.884 50.5515 131.024C49.3023 131.164 48.1269 129.821 47.9263 128.025Z" fill="#266DE0"/>
<path d="M154.094 303.135L153.797 300.016L166.621 264.858L221.271 275.396C221.271 275.396 249.438 310.094 243.174 333.06C241.476 339.289 262.849 380.656 255.814 376.194C248.78 371.733 263.13 384.151 259.455 384.442C255.78 384.733 261.552 389.063 262.645 391.424C287.819 445.795 328.079 516.789 328.079 516.789C328.079 516.789 319.706 540.328 306.494 527.167C293.282 514.005 204.897 397.087 204.897 397.087C204.897 397.087 206.089 404.699 207.75 416.272C212.881 452.027 220.942 524.006 213.78 527.733C208.063 530.693 201.661 532.079 195.231 531.751C195.231 531.751 147.83 422.141 154.094 401.262" fill="#FA8F7C"/>
<path d="M186.408 156.497L191.494 145.924L219.051 149.263L221.901 157.889C229.887 165.867 236.465 175.14 241.357 185.313C248.982 201.603 223.605 273.557 227.78 277.733C231.956 281.909 247.428 284.159 240.468 289.274C233.509 294.389 240.468 291.118 242.203 296.954C243.937 302.79 247.352 326.019 247.352 326.019C247.352 326.019 220.857 348.229 204.154 314.824C179.796 316.912 174.925 293.946 174.925 293.946L166.736 280.383C156.111 275.52 172.489 219.828 168.313 208.693C164.138 197.558 186.408 156.497 186.408 156.497Z" fill="#266DE0"/>
<path d="M161.223 275.716C161.16 271.626 161.172 267.221 159.356 263.453C157.992 260.622 155.46 257.794 152.123 257.557C149.287 257.356 146.067 259.034 145.806 262.117C145.495 265.783 148.581 269.284 151.08 271.598C154.1 274.371 157.775 276.33 161.761 277.288C162.041 277.373 162.29 277.536 162.479 277.759C162.668 277.982 162.788 278.254 162.826 278.544C162.864 278.833 162.818 279.127 162.692 279.391C162.567 279.655 162.368 279.877 162.12 280.03C158.946 281.785 156.141 284.136 153.858 286.954C151.75 289.558 149.57 292.997 149.125 296.386C148.936 297.829 149.192 299.584 150.72 300.188C152.172 300.761 153.938 300.014 155.184 299.276C158.114 297.327 160.41 294.563 161.789 291.325C163.491 287.657 164.064 283.566 163.436 279.571C163.126 277.683 166.017 276.87 166.329 278.774C167.703 287.16 164.357 297.148 156.853 301.771C153.439 303.875 148.231 304.245 146.517 299.805C144.964 295.783 147.533 290.95 149.68 287.642C152.434 283.4 156.185 279.897 160.606 277.44L160.964 280.181C156.607 279.11 152.583 276.98 149.246 273.981C146.054 271.114 142.616 266.858 142.793 262.314C142.952 258.23 146.215 255.269 150.127 254.671C154.38 254.022 158.176 256.339 160.613 259.7C163.955 264.309 164.139 270.245 164.223 275.716C164.21 276.104 164.046 276.473 163.766 276.743C163.486 277.013 163.112 277.164 162.723 277.164C162.334 277.164 161.96 277.013 161.681 276.743C161.401 276.473 161.237 276.105 161.223 275.716Z" fill="#2F2E41"/>
<path d="M283.056 332.999C281.164 332.014 279.731 330.329 279.063 328.303C278.394 326.277 278.542 324.071 279.476 322.153C279.672 321.766 279.9 321.396 280.157 321.046L245.15 269.759L259.07 254.877L291.724 319.835C293.09 321.013 294.027 322.61 294.39 324.376C294.754 326.143 294.522 327.98 293.731 329.601C293.272 330.519 292.637 331.338 291.862 332.01C291.087 332.683 290.186 333.196 289.213 333.521C288.239 333.846 287.211 333.975 286.187 333.903C285.164 333.83 284.164 333.557 283.246 333.098C283.182 333.066 283.119 333.033 283.056 332.999Z" fill="#FFB6B6"/>
<path d="M185.051 182.625C185.051 182.625 190.373 165.375 212.71 178.748C235.047 192.121 258.302 240.457 258.459 243.731C258.617 247.004 255.643 244.208 260.481 250.105C264.415 254.901 260.359 256.584 262.374 256.854C267.687 257.568 258.255 264.077 264.856 263.477C271.457 262.877 249.594 277.556 249.594 277.556C249.594 277.556 245.686 277.358 242.924 268.944C241.373 264.218 243.042 261.057 239.046 260.968C235.051 260.88 237.014 251.441 236.203 250.165C235.391 248.889 208.7 226.715 208.7 226.715L185.051 182.625Z" fill="#266DE0"/>
<path d="M220.009 97.5231C203.585 78.5819 232.78 128.733 210.969 148.284C219.859 155.337 252.465 152.835 250.623 148.284C248.78 143.733 242.741 100.313 236.261 97.5231C229.78 94.7329 220.009 97.5231 220.009 97.5231Z" fill="#2F2E41"/>
<path d="M242.399 335.252C241.91 333.324 243.761 331.192 246.532 330.49C249.303 329.788 251.946 330.781 252.435 332.709C252.923 334.637 251.073 336.769 248.301 337.471C245.53 338.174 242.887 337.18 242.399 335.252Z" fill="white"/>
<path d="M276.242 335.034C275.754 333.106 277.604 330.974 280.376 330.272C283.147 329.569 285.79 330.563 286.278 332.491C286.767 334.419 284.916 336.551 282.145 337.253C279.374 337.956 276.731 336.962 276.242 335.034Z" fill="#266DE0"/>
<path d="M236.048 363.331C235.559 361.403 237.41 359.271 240.181 358.568C242.952 357.866 245.595 358.859 246.084 360.787C246.572 362.715 244.722 364.848 241.95 365.55C239.179 366.252 236.536 365.259 236.048 363.331Z" fill="#FF6584"/>
<path d="M228.158 373.918C227.958 372.123 228.808 370.554 230.057 370.414C231.306 370.275 232.481 371.617 232.682 373.413C232.883 375.209 232.033 376.777 230.784 376.917C229.534 377.057 228.359 375.714 228.158 373.918Z" fill="#E6E6E6"/>
<path d="M225.375 395.126C225.175 393.331 226.025 391.762 227.274 391.622C228.523 391.483 229.698 392.825 229.899 394.621C230.1 396.416 229.25 397.985 228.001 398.125C226.751 398.265 225.576 396.922 225.375 395.126Z" fill="#266DE0"/>
<path d="M259.976 354.71C259.775 352.915 260.625 351.346 261.874 351.206C263.123 351.067 264.299 352.409 264.499 354.205C264.7 356.001 263.85 357.569 262.601 357.709C261.352 357.849 260.176 356.506 259.976 354.71Z" fill="#E6E6E6"/>
<path d="M242.944 348.312C242.743 346.516 243.593 344.947 244.843 344.808C246.092 344.668 247.267 346.011 247.468 347.806C247.668 349.602 246.818 351.171 245.569 351.311C244.32 351.45 243.145 350.108 242.944 348.312Z" fill="#FF6584"/>
<path d="M263.926 331.025C263.726 329.23 264.576 327.661 265.825 327.521C267.074 327.382 268.249 328.724 268.45 330.52C268.651 332.316 267.801 333.884 266.551 334.024C265.302 334.164 264.127 332.821 263.926 331.025Z" fill="#266DE0"/>
<path d="M43.3986 285.252C42.91 283.324 44.7606 281.192 47.532 280.49C50.3033 279.788 52.946 280.781 53.4346 282.709C53.9232 284.637 52.0726 286.769 49.3012 287.471C46.5299 288.174 43.8872 287.18 43.3986 285.252Z" fill="white"/>
<path d="M77.2423 285.034C76.7537 283.106 78.6043 280.974 81.3756 280.272C84.147 279.569 86.7897 280.563 87.2782 282.491C87.7668 284.419 85.9163 286.551 83.1449 287.253C80.3735 287.956 77.7309 286.962 77.2423 285.034Z" fill="#266DE0"/>
<path d="M37.0477 313.331C36.5591 311.403 38.4096 309.271 41.181 308.568C43.9524 307.866 46.595 308.859 47.0836 310.787C47.5722 312.715 45.7216 314.848 42.9503 315.55C40.1789 316.252 37.5362 315.259 37.0477 313.331Z" fill="#FF6584"/>
<path d="M29.1584 323.918C28.9577 322.123 29.8077 320.554 31.0569 320.414C32.3061 320.275 33.4814 321.617 33.682 323.413C33.8827 325.209 33.0327 326.777 31.7835 326.917C30.5343 327.057 29.359 325.714 29.1584 323.918Z" fill="#E6E6E6"/>
<path d="M26.3754 345.126C26.1748 343.331 27.0248 341.762 28.274 341.622C29.5231 341.483 30.6984 342.825 30.8991 344.621C31.0997 346.416 30.2497 347.985 29.0006 348.125C27.7514 348.265 26.5761 346.922 26.3754 345.126Z" fill="#266DE0"/>
<path d="M60.9757 304.71C60.7751 302.915 61.6251 301.346 62.8742 301.206C64.1234 301.067 65.2987 302.409 65.4994 304.205C65.7 306.001 64.85 307.569 63.6008 307.709C62.3517 307.849 61.1764 306.506 60.9757 304.71Z" fill="#E6E6E6"/>
<path d="M43.944 298.312C43.7434 296.516 44.5934 294.947 45.8425 294.808C47.0917 294.668 48.267 296.011 48.4677 297.806C48.6683 299.602 47.8183 301.171 46.5691 301.311C45.32 301.45 44.1446 300.108 43.944 298.312Z" fill="#FF6584"/>
<path d="M64.9263 281.025C64.7257 279.23 65.5757 277.661 66.8249 277.521C68.074 277.382 69.2494 278.724 69.45 280.52C69.6506 282.316 68.8006 283.884 67.5515 284.024C66.3023 284.164 65.1269 282.821 64.9263 281.025Z" fill="#266DE0"/>
<path d="M312.399 135.252C311.91 133.324 313.761 131.192 316.532 130.49C319.303 129.787 321.946 130.781 322.435 132.709C322.923 134.637 321.073 136.769 318.301 137.471C315.53 138.174 312.887 137.18 312.399 135.252Z" fill="white"/>
<path d="M346.242 135.034C345.754 133.106 347.604 130.974 350.376 130.272C353.147 129.569 355.79 130.563 356.278 132.491C356.767 134.419 354.916 136.551 352.145 137.253C349.374 137.956 346.731 136.962 346.242 135.034Z" fill="#266DE0"/>
<path d="M306.048 163.331C305.559 161.403 307.41 159.271 310.181 158.568C312.952 157.866 315.595 158.859 316.084 160.787C316.572 162.715 314.722 164.848 311.95 165.55C309.179 166.252 306.536 165.259 306.048 163.331Z" fill="#FF6584"/>
<path d="M298.158 173.918C297.958 172.123 298.808 170.554 300.057 170.414C301.306 170.275 302.481 171.617 302.682 173.413C302.883 175.209 302.033 176.777 300.783 176.917C299.534 177.057 298.359 175.714 298.158 173.918Z" fill="#E6E6E6"/>
<path d="M295.375 195.126C295.175 193.331 296.025 191.762 297.274 191.622C298.523 191.483 299.698 192.825 299.899 194.621C300.1 196.416 299.25 197.985 298.001 198.125C296.751 198.264 295.576 196.922 295.375 195.126Z" fill="#266DE0"/>
<path d="M329.976 154.71C329.775 152.915 330.625 151.346 331.874 151.206C333.123 151.067 334.299 152.409 334.499 154.205C334.7 156.001 333.85 157.569 332.601 157.709C331.352 157.849 330.176 156.506 329.976 154.71Z" fill="#E6E6E6"/>
<path d="M312.944 148.312C312.743 146.516 313.593 144.947 314.842 144.808C316.092 144.668 317.267 146.011 317.468 147.806C317.668 149.602 316.818 151.171 315.569 151.311C314.32 151.45 313.145 150.108 312.944 148.312Z" fill="#FF6584"/>
<path d="M333.926 131.025C333.726 129.23 334.576 127.661 335.825 127.521C337.074 127.382 338.249 128.724 338.45 130.52C338.651 132.316 337.801 133.884 336.551 134.024C335.302 134.164 334.127 132.821 333.926 131.025Z" fill="#266DE0"/>
<path d="M153.399 6.25226C152.91 4.32435 154.761 2.19213 157.532 1.48981C160.303 0.787483 162.946 1.78101 163.435 3.70892C163.923 5.63683 162.073 7.76905 159.301 8.47138C156.53 9.1737 153.887 8.18017 153.399 6.25226Z" fill="white"/>
<path d="M187.242 6.03412C186.754 4.10621 188.604 1.97399 191.376 1.27167C194.147 0.569343 196.79 1.56287 197.278 3.49078C197.767 5.41869 195.916 7.55091 193.145 8.25324C190.374 8.95556 187.731 7.96203 187.242 6.03412Z" fill="#266DE0"/>
<path d="M147.048 34.3308C146.559 32.4028 148.41 30.2706 151.181 29.5683C153.952 28.866 156.595 29.8595 157.084 31.7874C157.572 33.7153 155.722 35.8475 152.95 36.5499C150.179 37.2522 147.536 36.2587 147.048 34.3308Z" fill="#FF6584"/>
<path d="M139.158 44.9184C138.958 43.1227 139.808 41.5539 141.057 41.4143C142.306 41.2747 143.481 42.6172 143.682 44.4129C143.883 46.2086 143.033 47.7775 141.783 47.917C140.534 48.0566 139.359 46.7141 139.158 44.9184Z" fill="#E6E6E6"/>
<path d="M136.375 66.1262C136.175 64.3305 137.025 62.7617 138.274 62.6221C139.523 62.4825 140.698 63.8251 140.899 65.6208C141.1 67.4164 140.25 68.9853 139.001 69.1249C137.751 69.2645 136.576 67.9219 136.375 66.1262Z" fill="#266DE0"/>
<path d="M170.976 25.7103C170.775 23.9146 171.625 22.3458 172.874 22.2062C174.123 22.0666 175.299 23.4092 175.499 25.2049C175.7 27.0006 174.85 28.5694 173.601 28.709C172.352 28.8486 171.176 27.506 170.976 25.7103Z" fill="#E6E6E6"/>
<path d="M153.944 19.3119C153.743 17.5162 154.593 15.9474 155.843 15.8078C157.092 15.6682 158.267 17.0107 158.468 18.8064C158.668 20.6021 157.818 22.171 156.569 22.3105C155.32 22.4501 154.145 21.1076 153.944 19.3119Z" fill="#FF6584"/>
</svg>
